<svg width="35" height="38" viewBox="0 0 35 38" fill="none" xmlns="http://www.w3.org/2000/svg">
<path fill-rule="evenodd" clip-rule="evenodd" d="M20.009 19.7411L34.7517 34.0466C34.9391 34.9211 35.2014 36.7327 34.7517 36.9826C34.3019 37.2325 12.0337 37.0867 0.955893 36.9826C0.456141 36.6911 -0.393438 35.5583 0.206265 33.3594C0.805968 31.1605 10.3679 21.7818 15.0739 17.3673L0.206265 2.93697C0.0188597 1.93747 -0.0935813 -0.0490498 0.955893 0.000925453C2.00537 0.0509007 23.4656 0.0217485 34.0645 0.000925453C34.5226 0.354917 35.3014 1.63761 34.7517 3.93648C34.2019 4.63613 24.6941 14.7644 20.009 19.7411ZM9.88899 3.99893L17 15L27.6302 3.99893H9.88899ZM16.8231 22.9895L7.82751 32.9846H16.8231V22.9895Z" fill="#0A3F5A"/>
</svg>
